<svg width="31" height="30" fill="none" xmlns="http://www.w3.org/2000/svg"><path fill-rule="evenodd" clip-rule="evenodd" d="M.2.2L0 .397v29.204l.2.199.198.199h11.289c10.131 0 11.306-.01 11.465-.092.338-.175.344-.228.344-3.158v-2.667l1.497.996c1.347.896 1.521.995 1.744.995.137 0 .31-.043.385-.095.306-.215.3-.1.3-5.566v-5.08l.526-.543c2.166-2.239 2.675-5.512 1.281-8.237-1.054-2.062-3.076-3.535-5.308-3.867l-.425-.064v-1.02c0-1.143-.049-1.358-.344-1.51C22.992.009 21.818 0 11.686 0H.399L.2.2zm21.948 1.786v.637l-.278.04c-.944.134-1.922.48-2.686.949l-.415.255H1.349v-2.52h20.8v.639zm2.11 2.135a5.738 5.738 0 012.757 1.603 6.07 6.07 0 011.472 2.568c.118.409.135.597.135 1.493 0 1.164-.079 1.554-.495 2.442-.69 1.471-1.918 2.583-3.415 3.09-2.7.917-5.66-.251-7.036-2.778-.501-.92-.65-1.553-.65-2.754 0-1 .044-1.284.32-2.037a5.852 5.852 0 014.222-3.668c.656-.14.733-.147 1.46-.123.459.015.85.067 1.23.164zm-7.031 1.12c0 .016-.15.246-.332.514a7.617 7.617 0 00-.866 1.73l-.1.306-5.782.015c-5.403.015-5.792.023-5.933.12-.32.217-.318.187-.318 3.182 0 2.72.003 2.773.123 2.936a.944.944 0 00.264.237c.11.056 1.581.073 6.556.074h6.414l.485.483.485.482v5.04c0 3.276.021 5.116.06 5.258.078.28.323.456.635.456.21 0 .413-.117 1.734-.995l1.496-.996v4.569h-20.8V5.214h7.94c4.366 0 7.939.013 7.939.028zm4.879 1.351c-1.136.247-2.142 1.222-2.449 2.373-.11.413-.11 1.227 0 1.64.43 1.615 2.075 2.686 3.698 2.407a3.473 3.473 0 001.782-.936c.648-.66.937-1.366.937-2.29 0-.943-.291-1.64-.966-2.315a3.199 3.199 0 00-3.002-.879zm1.238 1.329c.142.038.398.163.568.278 1.23.833 1.07 2.698-.286 3.333a2.009 2.009 0 01-1.604.002 1.836 1.836 0 01-1.095-1.625c-.027-.523.05-.817.32-1.217a1.935 1.935 0 012.097-.771zm-7.68 2.055c.046 1.09.217 1.834.647 2.812l.097.22H5.215V9.14h10.412l.036.835zm4.785 6.574c1.473.529 3.219.536 4.685.02.275-.097.6-.227.72-.289l.22-.111v8.03l-1.48-.987c-.813-.543-1.551-1.005-1.64-1.027-.242-.06-.425.04-1.968 1.07l-1.416.944v-8.03l.22.11c.12.062.418.183.66.27zm-16.15.468c-.248.108-.373.305-.373.59 0 .289.127.483.386.592.288.12 10.655.121 10.942.001.522-.218.522-.97 0-1.188-.283-.118-10.683-.113-10.955.005zm.001 3.899c-.218.088-.374.347-.374.62 0 .2.035.286.172.423.095.095.256.19.359.21.244.048 10.413.048 10.656 0 .61-.122.73-.938.18-1.223-.147-.076-.883-.087-5.52-.084-2.942.002-5.405.026-5.473.054zm-.175 4.067c-.168.168-.2.241-.2.465 0 .373.232.602.66.653.17.02 2.615.029 5.435.02 5.55-.02 5.33-.006 5.527-.34a.617.617 0 00-.102-.798l-.199-.199H4.324l-.199.2z" fill="#3DB6C1"/></svg>