<svg width="30" height="31" fill="none" xmlns="http://www.w3.org/2000/svg"><path fill-rule="evenodd" clip-rule="evenodd" d="M17.34 1.091a7.196 7.196 0 00-2.79 1.173c-.426.3-4.513 4.326-9.897 9.752-3.426 3.452-3.59 3.643-4.076 4.744a6.93 6.93 0 00-.25 4.873c.983 3.134 4.24 5.149 7.525 4.653a7.14 7.14 0 003.04-1.232c.52-.375 12.66-12.5 13.082-13.068 2.561-3.44 1.458-8.29-2.329-10.237-1.277-.656-2.925-.908-4.306-.658zm2.667 1.575c1.465.438 2.638 1.414 3.314 2.758.445.884.546 1.335.546 2.431 0 .747-.023.992-.126 1.377a6.048 6.048 0 01-1.002 1.976c-.19.235-1.553 1.633-3.03 3.107l-2.688 2.681-3.838-3.84-3.837-3.84 2.841-2.826c2.926-2.91 3.237-3.182 4.059-3.554.817-.37 1.354-.47 2.416-.446.684.016.908.045 1.345.176zm-5.23 4.6c-1.241 1.195-1.41 1.381-1.499 1.66-.094.294.204.758.525.82.382.073.532-.037 1.884-1.38.885-.878 1.324-1.356 1.367-1.488.087-.264.023-.511-.188-.722-.148-.147-.222-.176-.465-.176h-.288l-1.336 1.286zm-2.581 6.923c2.074 2.098 3.778 3.833 3.786 3.855.009.022-1.257 1.306-2.812 2.855-2.926 2.912-3.205 3.155-4.053 3.54-.801.363-1.196.438-2.29.434-.911-.003-1.041-.017-1.513-.161-1.68-.516-2.962-1.72-3.553-3.335-.49-1.34-.406-2.992.216-4.234.395-.79.68-1.11 3.495-3.94 1.546-1.556 2.844-2.828 2.882-2.828.039 0 1.767 1.716 3.842 3.814zm10.275 3.195c-.533.081-1.162.229-1.524.358-2.335.832-4.094 2.948-4.485 5.395-.07.435-.083 1.564-.024 1.988C16.904 28.48 19.803 31 23.203 31a6.46 6.46 0 002.992-.698 6.868 6.868 0 003.633-4.529c.156-.629.213-1.85.117-2.508a6.878 6.878 0 00-5.424-5.772c-.46-.095-1.704-.162-2.05-.109zm2.021 1.58c.21.055.581.184.826.287.431.182 1.108.588 1.108.666 0 .021-1.689 1.726-3.752 3.788l-3.752 3.75-.117-.146c-.224-.283-.702-1.323-.82-1.788-.585-2.291.408-4.695 2.456-5.948.532-.326 1.237-.574 2.059-.726.312-.057 1.622.02 1.992.117zm3.491 2.795c.4.77.567 1.476.572 2.415.005.873-.127 1.51-.46 2.238-1.381 3.008-5.113 4.079-7.87 2.257l-.314-.207 3.77-3.771 3.77-3.772.133.162a6.1 6.1 0 01.4.678z" fill="#3DB6C1"/></svg>