<svg width="26" height="30" fill="none" xmlns="http://www.w3.org/2000/svg"><path fill-rule="evenodd" clip-rule="evenodd" d="M12.331.115c-.311.125-.527.283-1.206.883a11.575 11.575 0 01-4.893 2.597c-.812.208-1.43.312-2.495.417-.53.052-1.056.138-1.25.205C1.431 4.58.663 5.41.358 6.511c-.093.336-.103.7-.103 3.626 0 2.709.018 3.418.105 4.248.258 2.453.687 4.386 1.337 6.02 1.598 4.019 4.666 7.031 9.046 8.882 1.88.793 2.237.851 3.194.517a20.854 20.854 0 004.502-2.228c3.862-2.555 6.148-6.27 6.947-11.287.318-1.996.356-2.646.356-6.152.001-2.927-.01-3.29-.102-3.626-.305-1.102-1.073-1.93-2.127-2.294-.195-.067-.72-.153-1.25-.205-3.245-.32-5.398-1.229-7.623-3.217-.659-.588-1.009-.76-1.582-.78-.328-.012-.513.014-.728.1zm1.35 2.214c2.353 2.077 5 3.167 8.43 3.47 1.045.093 1.38.262 1.688.85.114.22.126.368.168 2.199.049 2.119-.014 4.388-.157 5.752-.383 3.625-1.395 6.365-3.18 8.613-1.62 2.038-4.068 3.718-6.972 4.787l-.658.242-.658-.242c-2.242-.825-4.245-2.027-5.748-3.45-2.3-2.18-3.683-5.02-4.25-8.73-.277-1.813-.377-4.054-.311-6.943.042-1.86.054-2.008.168-2.227.308-.589.643-.758 1.688-.85 3.43-.304 6.077-1.394 8.43-3.47.32-.283.626-.514.681-.514.055 0 .362.231.681.513zm-1.325 5.208C9 7.85 6.283 10.32 5.635 13.647c-.13.677-.13 2.03 0 2.706.597 3.067 2.937 5.415 5.987 6.006.713.138 2.041.138 2.754 0 3.048-.591 5.39-2.94 5.986-6.006.203-1.043.109-2.575-.22-3.585-.865-2.654-3.056-4.61-5.734-5.118-.483-.091-1.616-.153-2.054-.113zm2.08 1.949a7.35 7.35 0 011.113.445c1.146.572 1.948 1.375 2.52 2.52.486.975.578 1.38.578 2.549s-.092 1.574-.578 2.549c-.572 1.146-1.374 1.948-2.52 2.52-.975.486-1.38.578-2.549.578-1.147 0-1.562-.091-2.49-.545-1.248-.61-2.077-1.457-2.674-2.73-.399-.853-.483-1.264-.483-2.372 0-1.169.092-1.574.578-2.549a5.652 5.652 0 013.895-3.024c.68-.149 1.933-.12 2.61.059zm.937 3.027c-.097.05-.967.88-1.934 1.846l-1.76 1.755-.438-.444c-.582-.59-.858-.753-1.21-.713a1.035 1.035 0 00-.421.145c-.373.278-.487.822-.252 1.2.168.271 1.7 1.77 1.925 1.884.232.118.558.122.768.011.087-.046 1.142-1.07 2.344-2.274 2.35-2.355 2.346-2.349 2.236-2.833-.12-.531-.768-.829-1.258-.577z" fill="#3DB6C1"/></svg>