<svg width="20" height="20" fill="none" xmlns="http://www.w3.org/2000/svg"><path fill-rule="evenodd" clip-rule="evenodd" d="M9.448.09C9.115.204 8.91.363 8.12 1.124c-.43.412-.697.64-.788.67-.114.038-.28.025-.99-.078-1.016-.148-1.429-.162-1.733-.059-.621.212-1.038.7-1.186 1.39a35.97 35.97 0 00-.183.993c-.066.386-.144.746-.172.801-.09.17-.21.252-.998.667-.419.221-.834.452-.923.512A1.746 1.746 0 00.42 7.69c.034.23.122.447.494 1.221.33.686.452.982.452 1.089 0 .107-.123.403-.452 1.089-.372.774-.46.991-.494 1.221a1.746 1.746 0 00.726 1.67c.089.06.504.29.923.512.787.415.909.497.998.667.028.055.106.415.172.8.232 1.346.298 1.544.637 1.916.242.264.646.473 1.029.53.238.037.389.025 1.28-.101.843-.12 1.033-.135 1.147-.098.09.03.36.26.787.671.357.344.752.703.878.796.584.435 1.42.435 2.004 0 .126-.093.521-.452.879-.796.429-.413.697-.641.787-.671.114-.038.28-.025.99.078 1.016.148 1.429.162 1.733.059.622-.212 1.039-.7 1.186-1.39.034-.161.117-.608.183-.993.066-.386.144-.746.173-.801.088-.17.21-.252.997-.667.419-.221.834-.452.923-.512.531-.362.831-1.06.727-1.69-.033-.2-.15-.485-.495-1.203-.33-.685-.452-.98-.452-1.087 0-.107.123-.402.452-1.087.344-.718.462-1.003.495-1.203a1.765 1.765 0 00-.727-1.69 17.58 17.58 0 00-.923-.512c-.787-.415-.909-.497-.997-.667-.029-.055-.107-.415-.173-.8a35.724 35.724 0 00-.183-.994c-.147-.69-.564-1.178-1.186-1.39-.304-.103-.717-.089-1.732.059-.711.103-.877.116-.991.078-.09-.03-.358-.258-.787-.671a14.843 14.843 0 00-.879-.796A1.713 1.713 0 009.448.09zM8.325 4.925c.492.142 1.009.586 1.25 1.074.064.13.145.383.18.561.247 1.252-.766 2.463-2.06 2.463a2.16 2.16 0 01-1.828-1.06c-.144-.253-.28-.743-.28-1.009 0-.508.21-1.052.55-1.424.578-.633 1.352-.847 2.188-.606zm5.723.763c.237.113.358.36.31.63-.024.13-.462.582-3.94 4.064-3.125 3.127-3.943 3.926-4.057 3.96a.57.57 0 01-.717-.677c.022-.106.739-.843 3.92-4.03 2.141-2.145 3.946-3.924 4.01-3.954a.533.533 0 01.474.007zm-6.535.292c-.564.106-.918.696-.74 1.233.257.775 1.275.918 1.723.241.467-.705-.15-1.63-.983-1.474zm5.23 5.04c.538.11 1.114.534 1.394 1.025.141.246.277.738.277 1.001 0 .908-.625 1.767-1.481 2.036-.354.111-.903.11-1.26-.001-.94-.296-1.588-1.31-1.447-2.272.178-1.222 1.323-2.036 2.516-1.79zm-.726 1.127c-.317.102-.586.41-.658.757-.085.406.162.88.55 1.052a.995.995 0 001.053-.179c.617-.59.255-1.603-.59-1.652a1.3 1.3 0 00-.355.022z" fill="#F34770"/></svg>