<svg width="20" height="20" fill="none" xmlns="http://www.w3.org/2000/svg"><path d="M10 15L6.194 9.625A5.088 5.088 0 0110 1.25a5.05 5.05 0 015 5.081 5.125 5.125 0 01-1.125 3.206L10 15zm0-12.5a3.794 3.794 0 00-3.75 3.831c.004.918.334 1.804.931 2.5l2.82 3.994 2.893-4.075a3.9 3.9 0 00.856-2.419A3.794 3.794 0 0010 2.5z" fill="#3DB6C1"/><path d="M10 6.875a1.25 1.25 0 100-2.5 1.25 1.25 0 000 2.5zm7.5.625h-1.25v1.25h1.25v8.75h-15V8.75h1.25V7.5H2.5a1.25 1.25 0 00-1.25 1.25v8.75a1.25 1.25 0 001.25 1.25h15a1.25 1.25 0 001.25-1.25V8.75A1.25 1.25 0 0017.5 7.5z" fill="#3DB6C1"/></svg>