<svg width="40" height="50" fill="none" xmlns="http://www.w3.org/2000/svg"><path fill-rule="evenodd" clip-rule="evenodd" d="M6.133.204c-.518.234-.82.496-1.127.978-.386.605-.455 1.294-.42 4.191.032 2.477.05 2.718.238 3.123.361.777 1.052 1.293 2.017 1.507.263.058.268.074.268.777 0 .567-.04.769-.193.963-.288.366-1.476.654-3.057.743-1.066.06-1.37.112-1.749.302-.557.279-1.059.784-1.364 1.372l-.228.44v16.845c0 15.923.01 16.863.172 17.162.221.404.767.95 1.172 1.172.296.161 1.041.174 12.002.198 11.485.026 11.696.023 12.21-.17.287-.107.67-.32.853-.471l.331-.277.547.366c.302.2.745.415.986.475.296.073 1.713.1 4.393.08l3.955-.029.551-.258a3.461 3.461 0 001.632-1.632c.22-.468.258-.684.258-1.43 0-.78-.032-.943-.29-1.45-.36-.712-1.061-1.354-1.79-1.637-.498-.195-.78-.222-2.678-.26L32.7 43.24l.117-.209c.065-.117.118-.593.12-1.088.002-.783-.029-.94-.287-1.45-.323-.638-.915-1.21-1.599-1.548-.383-.189-.61-.224-1.432-.224-1.477 0-1.527.034-4.756 3.257-2.303 2.299-2.743 2.785-2.966 3.272-.364.798-.414 1.597-.15 2.379.113.334.206.63.206.659 0 .029-4.264.052-9.476.052-10.44 0-10.023.024-10.237-.59-.076-.218-.111-1.62-.111-4.454V39.16h23.696l.232-.247c.333-.354.317-.877-.037-1.182l-.27-.231H2.13V20.898h26.66v15.224l.231.269c.305.354.828.37 1.184.036l.248-.234-.026-10.845-.026-10.846-.21-.39c-.285-.53-.85-1.076-1.38-1.333-.34-.164-.78-.24-1.963-.337-1.799-.147-2.435-.315-2.787-.732-.217-.258-.251-.391-.251-.974 0-.655.007-.675.268-.733.975-.216 1.528-.597 1.935-1.331l.287-.518V5.078c0-2.356-.032-3.165-.134-3.455-.187-.53-.755-1.124-1.331-1.393l-.488-.228-8.887.001c-8.735.001-8.894.005-9.326.2zm1.855 2.954c.047 1.377.06 1.46.28 1.636.34.275.85.243 1.141-.072.231-.25.24-.308.24-1.66V1.66h1.66v1.42c0 1.378.007 1.428.24 1.66a.835.835 0 001.18 0c.233-.232.24-.282.24-1.66V1.66h1.66v1.42c0 1.378.007 1.428.24 1.66a.835.835 0 001.18 0c.233-.232.24-.282.24-1.66V1.66h1.66v1.402c0 1.352.009 1.41.24 1.66.33.357.9.36 1.233.007.223-.239.238-.327.27-1.66l.033-1.409h1.545v1.325c0 1.667.141 1.986.886 1.992a.71.71 0 00.586-.248c.224-.239.238-.325.268-1.672l.032-1.42.53.044c.381.032.6.109.774.273l.244.229v5.639l-.24.239-.24.24h-8.544c-6.055 0-8.614-.032-8.783-.109C6.36 8 6.328 7.767 6.328 4.94c0-2.528.01-2.68.197-2.918.218-.277.437-.346 1.024-.326l.39.013.05 1.45zm14.163 7.804c.003 1.396.426 2.085 1.609 2.617.796.36 1.434.484 2.933.572 2.05.12 2.096.188 2.096 3.027v1.963H2.13v-1.93c0-1.642.025-1.977.171-2.263.32-.63.566-.726 2.005-.796.71-.035 1.488-.116 1.73-.181 2.09-.56 2.715-1.23 2.81-3.01l.049-.902h13.254l.003.903zM11.548 12.74a.777.777 0 00-.24.59c0 .242.075.425.24.59l.24.24h6.951l.24-.24c.33-.33.323-.822-.018-1.163l-.257-.257h-6.916l-.24.24zM9.19 22.652c-.423.258-.463.55-.33 2.415.351 4.909 1.534 8.014 3.572 9.376 1.085.726 2.674.68 4.319-.123.388-.19.736-.353.773-.364.037-.011.166.302.287.697.12.394.318.822.44.952.3.319.797.317 1.119-.005.325-.325.313-.802-.05-1.927l-.288-.897.667-.64c1.522-1.465 2.129-3.074 1.686-4.476-.33-1.044-1.17-1.936-2.586-2.746-.998-.571-3.25-1.33-5.244-1.767-.812-.178-3.76-.687-3.975-.686-.043 0-.218.086-.39.191zm1.906 2.463a16.38 16.38 0 015.39 6.14l.472.939-.505.305c-.892.538-1.443.737-2.068.745-.998.013-1.72-.55-2.367-1.848-.583-1.17-1.07-3.01-1.291-4.882-.183-1.545-.197-1.71-.142-1.71.03 0 .26.14.51.311zm3.729.115c1.806.499 3.203 1.12 4.08 1.813 1.21.956 1.191 2.128-.055 3.519l-.47.524-.63-1.146a19.335 19.335 0 00-2.995-4.048c-.48-.49-.847-.892-.816-.892.031 0 .43.103.886.23zM30.46 40.546c.656.368.942 1.063.75 1.822-.09.358-.293.628-1.114 1.472l-1.004 1.033-1.177-1.17-1.178-1.17.948-.952c.521-.523 1.082-1.017 1.245-1.098.436-.215 1.084-.188 1.53.063zm-3.633 6.563c-.844.82-1.113 1.024-1.472 1.114-.468.118-.999.03-1.4-.234-.518-.339-.781-1.305-.533-1.957.056-.148.55-.723 1.095-1.278l.993-1.01 1.175 1.18 1.175 1.18-1.033 1.005zm-22.8-1.831c-.377.407-.266 1.074.216 1.293.16.073 1.34.109 3.588.109h3.35l.259-.24a.81.81 0 00.018-1.18l-.24-.24H4.269l-.24.258zM32.11 46.68v1.66h-1.245c-1.284 0-1.725-.072-2.148-.35l-.245-.16 1.403-1.405c1.367-1.37 1.413-1.405 1.82-1.405h.415v1.66zm4.818-1.527c.415.173.815.656.945 1.14.216.801-.315 1.713-1.129 1.938-.212.06-.946.108-1.63.108h-1.246v-3.32h1.37c.937 0 1.472.043 1.69.134z" fill="#3DB6C1"/></svg>