<svg width="20" height="20" fill="none" xmlns="http://www.w3.org/2000/svg"><path d="M15.405 19.689a2.594 2.594 0 01-.555-.062 18.838 18.838 0 01-9.233-4.86 18.172 18.172 0 01-5-9.029 2.544 2.544 0 01.75-2.377l2.222-2.14a1.111 1.111 0 01.855-.3 1.111 1.111 0 01.806.484l2.778 4.106a.889.889 0 01-.061 1.055L6.572 8.233a10.522 10.522 0 002.317 3.272 10.698 10.698 0 003.372 2.272l1.728-1.372a.91.91 0 011.033-.066l4.194 2.71a1.11 1.11 0 01.228 1.728l-2.166 2.145a2.635 2.635 0 01-1.873.767zM4.355 2.021L2.133 4.16a1.411 1.411 0 00-.416 1.333 17.056 17.056 0 004.672 8.478 17.722 17.722 0 008.689 4.572 1.527 1.527 0 001.389-.411l2.166-2.144-4.05-2.617-1.855 1.478a.557.557 0 01-.511.094 11.145 11.145 0 01-4.09-2.639 10.827 10.827 0 01-2.705-4 .556.556 0 01.133-.528l1.5-1.794-2.7-3.961z" fill="#3DB6C1"/></svg>