<svg width="46" height="50" fill="none" xmlns="http://www.w3.org/2000/svg"><path fill-rule="evenodd" clip-rule="evenodd" d="M23.684.062c-3.946.474-7.826 1.305-9.985 2.14-2.798 1.08-4.68 2.584-6.339 5.062-1.068 1.598-1.748 3.218-2.338 5.578-.331 1.321-.53 1.9-1.01 2.923-.416.888-.56 1.417-.574 2.104-.015.703.37 1.426 1.089 2.043.745.64.831.841.592 1.375-.105.234-.26.737-.344 1.117-.247 1.107-.64 1.79-1.711 2.97C.88 27.777.388 28.548.462 29.447c.078.933.522 1.404 2.203 2.332.729.402.756.43.784.806.023.3-.071.596-.415 1.302-.303.623-.444 1.038-.444 1.307 0 .354.058.449.573.934.565.532.572.546.444.834-.328.742-.09 1.362.72 1.873 1.096.69 1.122.755.843 2.082a4.64 4.64 0 00.164 2.517c.393 1.144.875 1.71 1.83 2.149.465.213.617.234 1.368.19.963-.055 2.692-.509 5.656-1.484l1.882-.62.543.497c.878.802 1.62 2.028 2.289 3.786.25.659.416.926.815 1.317.307.301.655.536.902.61.305.091 2.535.12 9.277.118 8.714-.002 8.883-.006 9.315-.201.962-.435 1.502-1.236 1.51-2.238.003-.546-.067-.807-.499-1.862-.61-1.491-1.032-2.931-1.37-4.681-.223-1.152-.257-1.584-.266-3.418-.008-1.687.025-2.261.166-2.918.551-2.554 1.17-3.763 3.728-7.287 1.474-2.03 2.265-3.708 2.707-5.74.186-.858.217-1.287.214-3.05-.006-4.427-.822-7.567-2.693-10.365C40.566 5.034 35.543 1.67 31.27.578c-1.722-.44-2.296-.504-4.803-.53-1.343-.015-2.595-.009-2.783.014zm4.248 1.703c3.907.341 6.83 1.59 10.582 4.52 1.746 1.363 2.824 2.69 3.733 4.595.526 1.102.857 2.235 1.182 4.053.19 1.06.22 1.56.218 3.622-.003 2.288-.015 2.435-.267 3.369-.145.537-.501 1.46-.791 2.05-.48.975-.827 1.503-2.637 4.004-1.732 2.392-2.662 4.627-3.033 7.286-.44 3.156.185 7.282 1.664 10.978.568 1.418.552 1.75-.094 1.996-.178.068-3.106.102-8.713.102-7.063 0-8.49-.023-8.711-.137-.21-.109-.351-.359-.677-1.2-.466-1.204-1.16-2.42-1.913-3.35l-.513-.635 1.82-.642c2.538-.895 3.76-1.599 4.579-2.633.737-.933 1.01-2.226.585-2.767-.162-.206-.285-.257-.618-.257-.522 0-.792.267-.888.879-.104.654-.313 1.03-.84 1.504-.733.658-1.79 1.114-5.752 2.481-5.15 1.776-8.125 2.63-8.751 2.513-.506-.095-.96-.576-1.152-1.223-.198-.666-.197-1.222.002-2.15.28-1.303-.109-2.305-1.156-2.979-.251-.161-.458-.337-.46-.39-.001-.054.083-.208.189-.342.186-.24.251-.716.138-1.012-.032-.082-.306-.335-.61-.561l-.593-.443c-.02-.017.126-.356.328-.753.275-.542.38-.884.418-1.369.097-1.205-.321-1.806-1.879-2.7-1.25-.717-1.254-.721-1.031-1.157.1-.195.614-.85 1.143-1.455.53-.605 1.217-1.394 1.53-1.754a6.607 6.607 0 001.4-2.712c.088-.376.27-.942.402-1.258.464-1.107.184-2.003-.973-3.114-.673-.646-.687-.67-.627-1.047.034-.212.242-.794.463-1.292.558-1.263.635-1.49 1.07-3.192.446-1.74.905-2.96 1.531-4.062 1.336-2.351 2.838-3.828 4.92-4.835 2.412-1.167 7.457-2.275 11.705-2.571a19.08 19.08 0 013.077.04zm-.05 1.607c-2.545.697-3.364 3.86-1.475 5.7l.487.473-.152.867c-.108.619-.137 1.24-.103 2.17.047 1.291.046 1.301-.16 1.242a55.807 55.807 0 00-3.332-.798c-.822-.156-.906-.195-1.283-.592-.222-.234-.563-.728-.757-1.098l-.354-.672.421-.247c.552-.323 1.205-1.04 1.468-1.61.166-.361.21-.643.21-1.336 0-1.02-.18-1.52-.793-2.199-1.665-1.843-4.535-1.397-5.586.869-.363.783-.363 1.878.003 2.665.448.967 1.355 1.744 2.25 1.928.241.05.32.163.607.874l.329.816-.406-.065c-.47-.075-3.667-.445-3.849-.445-.067 0-.122-.08-.122-.18 0-.344-.602-1.381-1.008-1.734-.808-.704-1.867-1.011-2.836-.822-1.159.226-1.989.873-2.49 1.943-.215.458-.258.686-.258 1.379 0 .694.043.92.259 1.382.315.672.88 1.255 1.57 1.617.464.245.612.272 1.492.272.882 0 1.027-.026 1.5-.275.626-.33 1.276-.974 1.513-1.5l.173-.383 1.532.171c1.427.16 4.915.663 4.978.717.015.014-.34.393-.79.843-.45.45-.924.958-1.054 1.129-.23.304-.245.309-.72.219-1.367-.26-2.891.604-3.527 1.997-.213.468-.262.717-.262 1.344 0 .667.041.854.309 1.397 1.04 2.113 3.744 2.585 5.389.941.68-.68.969-1.376.968-2.33 0-.841-.12-1.259-.54-1.881l-.338-.503.193-.272c.383-.537 1.743-1.724 2.342-2.043l.612-.327.843.221c1.962.514 3.394 1.104 4.27 1.759.679.506.858.91.797 1.795-.065.956-.309 1.61-1.585 4.257-1.21 2.512-1.623 3.58-1.806 4.671-.26 1.55.067 2.445 1.394 3.819.975 1.009 1.412 1.724 1.864 3.049.797 2.34 1.147 5.108 1.146 9.083v2.508l.252.251c.33.331.828.34 1.148.02.33-.33.382-.955.318-3.863-.08-3.609-.41-5.986-1.14-8.21-.616-1.875-1.31-3.062-2.389-4.088-.759-.721-.883-.983-.883-1.869 0-.972.261-1.71 1.605-4.541l1.066-2.246.586-.029c.47-.023.681.02 1.073.218.267.136.51.283.537.328.028.045-.068.32-.213.612-.23.464-.263.648-.263 1.459 0 .832.03.986.287 1.493 1.308 2.584 4.89 2.514 6.14-.12.252-.531.299-.746.299-1.373s-.048-.845-.302-1.389c-.723-1.544-2.397-2.348-3.952-1.896l-.544.158-.65-.436c-.627-.42-1.694-.832-2.157-.832-.208 0-.218-.025-.138-.366.124-.537.107-1.181-.047-1.777-.125-.483-.12-.561.056-.972.257-.601 1.156-1.935 1.574-2.337l.339-.326.446.34a3.431 3.431 0 003.51.384c2.754-1.288 2.748-5.063-.01-6.356-.471-.22-.685-.26-1.433-.26-.766 0-.95.036-1.44.276a3.86 3.86 0 00-1.703 1.703c-.238.486-.276.681-.284 1.47l-.01.909-.487.507a10.387 10.387 0 00-1.538 2l-.367.613-.308-.202c-.17-.112-.555-.331-.858-.488-.302-.156-.58-.363-.62-.46-.342-.842-.47-2.032-.343-3.17.141-1.263.12-1.226.71-1.3.757-.095 1.643-.56 2.158-1.133 1.487-1.654.965-4.287-1.044-5.26-.754-.364-1.566-.451-2.313-.247zm1.751 1.977c.908.672.932 1.949.05 2.622-.314.24-.458.281-.97.281s-.656-.042-.97-.281c-.649-.495-.842-1.44-.432-2.112.26-.428.502-.606 1.006-.74a1.554 1.554 0 011.316.23zm-9.127.843c.45.343.639.722.639 1.283 0 1.529-1.765 2.233-2.78 1.11-.395-.438-.486-.719-.42-1.306.136-1.202 1.597-1.822 2.56-1.087zm16.4 4.003c.18.075.453.302.608.505.24.314.28.458.28.97s-.04.656-.28.97c-.839 1.1-2.58.715-2.883-.636-.084-.37.053-1.013.283-1.327.407-.558 1.296-.773 1.992-.482zm-24.201.83a1.612 1.612 0 01-.078 2.986c-.639.255-1.192.133-1.701-.376-.671-.67-.697-1.518-.067-2.215.52-.577 1.15-.711 1.846-.395zm6.783 7.56c.48.253.877.878.873 1.377-.003.419-.311 1.057-.633 1.31-.696.548-1.755.437-2.287-.24-.488-.62-.476-1.489.028-2.064.558-.635 1.283-.773 2.02-.384zm17.418 4.11c.18.075.453.302.608.505.24.314.28.458.28.97s-.04.656-.28.97c-.839 1.1-2.58.715-2.883-.636-.084-.37.053-1.013.283-1.327.407-.558 1.296-.773 1.992-.482z" fill="#3DB6C1"/></svg>