<svg width="51" height="46" fill="none" xmlns="http://www.w3.org/2000/svg"><path fill-rule="evenodd" clip-rule="evenodd" d="M10.79.543C3.768 1.425-.54 8.529 1.5 15.86c1.181 4.24 4.742 8.675 10.423 12.985 2.4 1.819 6.425 4.415 9.036 5.827.787.425.893.457 1.41.42.494-.036.736-.145 2.117-.953 1.707-.998 3.939-2.463 4.486-2.944.285-.25.348-.373.348-.677 0-.295-.061-.424-.3-.625-.165-.139-.393-.252-.505-.252-.113 0-.956.498-1.873 1.107-1.565 1.04-2.585 1.67-3.873 2.391l-.545.306-1.58-.918C12.366 27.72 7.15 23.215 4.523 18.605 2.5 15.057 2.15 11.262 3.538 7.931c1.999-4.803 7.048-6.878 12.388-5.093 1.957.654 3.493 1.655 5.009 3.263 1.313 1.392 1.258 1.395 2.785-.155 2.05-2.082 4.18-3.2 6.87-3.606 5.157-.777 9.413 1.944 10.799 6.905.284 1.017.54 1.353 1.03 1.353.336 0 .866-.46.866-.75 0-.442-.54-2.123-.97-3.023-.63-1.323-1.145-2.065-2.14-3.088C37.335.82 33.476-.173 29.125.895a13.577 13.577 0 00-6.104 3.284l-.78.729-.746-.701A13.91 13.91 0 0014.448.689C13.327.497 11.679.431 10.79.543zm2.78 9.274c-.203.16-.446.786-1.291 3.32l-1.041 3.125H9.045c-1.67 0-2.27.033-2.523.138-.607.254-.724.866-.256 1.334l.285.285h2.78c2.575 0 2.797-.013 3.007-.183.167-.135.423-.772.97-2.417l.745-2.234 1.836 5.518c1.12 3.367 1.913 5.603 2.035 5.737.129.142.313.22.517.22.458 0 .613-.083.794-.427.088-.168.959-2.722 1.933-5.675l1.773-5.37.754 2.261c.603 1.81.8 2.293.989 2.417.198.13.618.154 2.687.154h2.453l.285-.286c.468-.468.35-1.08-.256-1.334-.247-.103-.812-.138-2.215-.138h-1.885l-.962-2.906c-.53-1.598-1.025-3.042-1.102-3.209-.238-.517-.803-.668-1.233-.33-.208.165-.555 1.112-2.087 5.71-1.01 3.033-1.864 5.482-1.9 5.443-.034-.038-.884-2.543-1.89-5.565-1.711-5.146-1.845-5.504-2.107-5.64-.376-.194-.605-.181-.902.052zm25.599 2.496c-2.569.465-5.002 2.078-6.487 4.301-.667.998-1.069 1.882-1.394 3.065l-.255.928-.032 7.764c-.034 8.277-.018 8.657.439 10.105 1.825 5.787 8.313 8.665 13.77 6.108 2.708-1.27 4.681-3.633 5.523-6.617.21-.747.214-.877.247-8.668.024-5.715.001-8.114-.081-8.643a10.068 10.068 0 00-8.188-8.352c-1.003-.176-2.542-.172-3.542.009zm3.795 1.805c3.348.771 5.84 3.586 6.269 7.083.058.48.106 2.003.107 3.386v2.515H32.724l.033-3.296.032-3.296.32-.928c.446-1.289 1.087-2.32 2.03-3.263 2.08-2.08 4.9-2.873 7.825-2.2zm-3.341 1.506c-1.93.42-3.618 1.704-4.511 3.427-.497.96-.693 1.613-.773 2.574-.06.711-.05.76.202 1.06.33.39.79.427 1.179.093.218-.188.27-.338.344-.99.148-1.325.513-2.14 1.349-3.017.886-.929 1.829-1.384 3.18-1.536.665-.075.822-.128 1.008-.341.301-.347.293-.86-.02-1.174-.202-.202-.33-.238-.806-.232a6.99 6.99 0 00-1.152.136zm9.693 17.166c-.038 3.667-.055 3.983-.254 4.712-1.182 4.325-5.294 6.957-9.6 6.145a8.322 8.322 0 01-6.53-6.22c-.175-.73-.193-1.16-.193-4.686V28.86h16.618l-.04 3.931z" fill="#3DB6C1"/></svg>