<svg width="51" height="50" fill="none" xmlns="http://www.w3.org/2000/svg"><path fill-rule="evenodd" clip-rule="evenodd" d="M29.916.246a1.586 1.586 0 00-.625.694c-.206.424-.215.535-.16 1.928.06 1.574.218 2.658.607 4.18.381 1.49.743 2.365 1.981 4.795 1.442 2.828 1.631 3.381 1.628 4.759-.001.733-.053 1.178-.182 1.562-.735 2.186-2.65 3.693-5.099 4.012-1.608.21-3.305-.274-4.334-1.236-.994-.93-1.072-1.259-1.161-4.924-.075-3.042-.116-3.226-.826-3.695-.354-.235-.497-.264-1.476-.294-1.223-.04-1.761.068-2.2.437-.539.453-.536.435-.593 3.942-.062 3.8-.06 3.79-1.076 5.127a20.09 20.09 0 00-.925 1.326l-.332.545-1.3-.044c-.721-.025-1.682.007-2.159.07C5.586 24.242.905 28.923.09 35.027c-.167 1.253-.06 3.346.238 4.621a13.401 13.401 0 0010.95 10.208c1.128.183 2.978.183 4.107 0 6.502-1.054 11.276-6.617 11.275-13.137 0-1.187-.183-2.654-.433-3.467a5.42 5.42 0 01-.15-.556c-.001-.037.32.08.715.259.932.425 2.34.873 3.437 1.094 1.225.247 4.592.248 5.856.001 4.412-.86 8.304-3.648 10.93-7.83 2.727-4.341 3.62-9.596 2.544-14.955-.742-3.692-2.412-6.547-4.729-8.088-1.076-.715-1.885-.967-3.13-.973-1.137-.006-1.704.136-2.636.66-.718.404-1.84 1.544-2.2 2.238-.16.309-.317.562-.35.562-.107 0-.849-1.697-1.003-2.297a12.151 12.151 0 01-.24-1.374c-.092-.823-.196-1.11-.541-1.49-.422-.465-.617-.503-2.57-.502-1.784 0-1.848.008-2.243.245zm3.714 2.433c.191 1.174.504 2.153.998 3.129.595 1.172.879 1.46 1.6 1.625.777.178 1.491-.263 1.973-1.217.362-.718 1.308-1.68 1.984-2.017.423-.211.62-.244 1.465-.244.86 0 1.045.032 1.547.267 2.008.941 3.715 3.438 4.491 6.569.345 1.392.457 2.141.543 3.652.172 2.986-.269 5.756-1.31 8.235l-.357.852-.375-.475c-1.798-2.274-5.052-3.25-7.814-2.343-1.329.436-1.91.833-3.567 2.434-1.02.986-1.5 1.368-2.392 1.903-1.448.867-2.096 1.378-2.71 2.135-.676.833-.997 1.473-1.496 2.984-.232.703-.457 1.277-.5 1.277-.177 0-1.537-.741-2.206-1.202-.544-.375-.878-.71-1.382-1.39a13.96 13.96 0 00-4.257-3.806c-.633-.36-1.52-.742-2.812-1.21-.16-.059-.104-.171.477-.941.828-1.098 1.15-1.673 1.407-2.52.187-.616.204-.909.204-3.638V13.77h1.631l.062 2.416c.095 3.641.305 4.508 1.373 5.661 1.256 1.358 3.039 2.079 5.137 2.079 3.621 0 6.831-2.416 7.56-5.69.53-2.37.116-3.977-2.036-7.933-1.291-2.373-2.002-5.08-2.007-7.642l-.002-1h2.605l.166 1.018zm8.644 3.327c-.316.172-.51.616-.422.966.036.145.24.404.453.575 1.44 1.157 2.615 4.528 2.617 7.502 0 .916.133 1.32.494 1.507.41.212.66.176.978-.142.264-.264.286-.34.284-1.001-.007-2.917-.843-5.987-2.151-7.893-.459-.67-1.226-1.421-1.589-1.557-.34-.128-.35-.127-.664.043zm-.547 16.208c1.358.288 2.56 1.11 3.454 2.362.527.738.552.624-.437 1.954-.817 1.098-2.48 2.752-3.49 3.47a13.702 13.702 0 01-9.145 2.517c-1.151-.092-2.715-.373-2.715-.488 0-.212.84-2.472 1.107-2.976.466-.883 1.304-1.645 2.792-2.54 1.113-.668 1.509-.98 2.744-2.163 1.134-1.085 1.583-1.448 2.092-1.691 1.172-.56 2.363-.707 3.598-.445zM39.4 23.58a.831.831 0 00.59 1.42c.477 0 .83-.354.83-.83a.808.808 0 00-.83-.83.777.777 0 00-.59.24zm-23.854 1.665c2.381.491 4.32 1.532 6.006 3.225 2.25 2.258 3.387 5.036 3.378 8.249-.01 3.42-1.433 6.52-4.018 8.75-4.74 4.09-11.903 3.683-16.135-.919C1.523 41.012.77 35.891 2.874 31.592c1.74-3.555 5.15-6.001 9.05-6.49.927-.116 2.706-.046 3.622.143zm26.383-.014c-.566.487-.205 1.433.544 1.426.385-.003.6-.13.773-.454.175-.329.137-.574-.14-.902-.32-.381-.783-.408-1.177-.07zm-4.884.739c-.816.498-.237 1.767.686 1.504.203-.058.37-.205.495-.437.166-.307.173-.386.06-.66-.123-.296-.53-.596-.806-.595-.07 0-.265.084-.435.188zm-24.305.93c-.215.214-.24.322-.24 1.012v.773l-.383.253a2.635 2.635 0 00-1.014 1.284c-.123.354-.158.377-.855.553-.4.102-.942.318-1.205.481-.263.163-.511.262-.55.219-.04-.043-.092-.463-.115-.932-.036-.72-.077-.892-.264-1.09-.299-.319-.631-.388-.983-.206-.382.197-.49.423-.49 1.02v.495h-.394c-1.107 0-1.645.808-.981 1.472.27.27.329.285 1.108.285.69 0 .85.031.994.19.16.177.161.228.015.812-.177.703-.192 1.12-.063 1.678.134.576 0 .634-1.468.638-1.185.003-1.236.011-1.46.25-.333.354-.316.877.037 1.181.223.192.378.232.892.232h.622l-.09.317c-.215.748-.027 1.727.489 2.54l.294.463h-.57c-.486 0-.609.038-.828.258-.341.34-.349.832-.018 1.163.202.201.334.24.83.24h.59v.59c0 .497.039.628.24.83.358.358.848.354 1.22-.008.21-.206.243-.34.28-1.116l.042-.883h1.029l.067.36c.231 1.231 1.21 2.206 2.49 2.481l.492.105v.68c0 .592.031.711.24.92.33.33.822.323 1.163-.018.24-.24.257-.317.257-1.136v-.878l.423-.402c.233-.221.49-.503.573-.625.128-.191.186-.208.413-.122.46.175 1.714.12 2.19-.097.235-.106.438-.193.452-.193.014 0 .052.167.085.372.107.667.75 1.014 1.317.71.282-.15.407-.483.407-1.089v-.482h.59c.497 0 .628-.038.83-.24.336-.335.318-.77-.046-1.134-.251-.252-.354-.286-.865-.286h-.58l.01-.809c.01-.726-.02-.874-.3-1.44l-.313-.63.207-.22c.192-.204.292-.221 1.308-.221 1.005 0 1.123-.02 1.36-.222a.793.793 0 00.01-1.206c-.225-.194-.376-.232-.923-.232h-.654l-.001-1.05c-.001-.971-.024-1.095-.3-1.66l-.299-.61h.527c.453 0 .568-.04.813-.286.664-.664.126-1.472-.98-1.472h-.395v-.495c0-.62-.122-.852-.54-1.027-.68-.284-1.145.152-1.2 1.123l-.038.662-.404-.142a5.058 5.058 0 00-1.016-.194c-.474-.04-.61-.087-.611-.21 0-.086-.134-.388-.296-.67-.313-.547-.87-1.017-1.42-1.198l-.334-.11v-.681c0-.592-.031-.712-.24-.92a.835.835 0 00-1.18 0zm26.66 0a.831.831 0 00.59 1.42c.477 0 .83-.354.83-.83a.831.831 0 00-1.42-.59zm-5.576.636c-.29.12-.523.482-.523.813 0 .335.472.85.778.85.577 0 1.075-.617.89-1.102-.177-.461-.73-.733-1.145-.56zm2.256 1.024a.831.831 0 00.59 1.42.809.809 0 00.572-1.402c-.34-.341-.832-.349-1.162-.018zm-4.154 1.706c-.364.364-.382.799-.046 1.135.35.35.851.355 1.194.012.342-.342.337-.843-.013-1.193-.336-.336-.77-.318-1.135.046zm-17.66.195c.393.394.369.682-.083.984a7.18 7.18 0 01-.427.273c-.108.05-1.06-.706-1.06-.842 0-.071.128-.258.285-.415.211-.211.378-.285.642-.285s.431.074.642.285zm-2.298 2.159c.695.336.758.457.583 1.127a5.174 5.174 0 00-.154 1.015c-.005.443-.005.443-.573.712l-.568.269-.446-.25c-.246-.137-.746-.305-1.112-.373l-.665-.123v-.645c0-.558.04-.7.293-1.06.58-.822 1.728-1.115 2.642-.672zm5.663.033c.86.4 1.336 1.166 1.344 2.161.005.686-.247 1.327-.684 1.736l-.289.27-.616-.157c-.338-.087-.796-.14-1.016-.12-.374.036-.435.005-.89-.461-.27-.276-.677-.583-.905-.683-.406-.179-.415-.193-.415-.655 0-1.735 1.847-2.847 3.47-2.091zm-7.545 4.385c.23.15.24.19.152.58-.107.471-.036 1.13.177 1.64.138.332.135.348-.131.563-.845.68-2.113.4-2.627-.583-.197-.378-.171-1.094.057-1.54.114-.224.365-.486.61-.636.347-.213.507-.25.966-.22.302.018.66.107.796.196zm3.769-.082c.449.233.53.39.306.592-.3.271-.752 1.03-.886 1.49-.14.473-.274.512-.757.217-.544-.332-.739-1.048-.463-1.707.263-.63 1.156-.924 1.8-.592zm3.532 1.55c.739.391 1.073 1.358.741 2.151-.269.645-1.16 1.133-1.834 1.006-1.311-.248-1.887-1.79-1.032-2.763.57-.65 1.363-.797 2.125-.394zm-4.896 2.57c.237.074.53.135.652.135.144 0 .27.094.357.269.075.147.196.363.269.478.115.182.11.245-.036.469-.75 1.144-2.53.62-2.53-.745 0-.316.057-.44.283-.625.155-.126.347-.205.428-.173.08.032.34.118.577.192z" fill="#3DB6C1"/></svg>