<svg width="26" height="31" fill="none" xmlns="http://www.w3.org/2000/svg"><path fill-rule="evenodd" clip-rule="evenodd" d="M8.237.118a.797.797 0 00-.218.323c-.057.172-.05.24.04.424.14.286.418.424.857.424h.34l-.02 4.263c-.02 4.216-.021 4.267-.151 4.692a6.002 6.002 0 01-.312.788c-.1.198-1.835 2.826-3.857 5.84-2.022 3.015-3.744 5.6-3.828 5.745-.24.416-.5 1.275-.568 1.869a4.998 4.998 0 00.8 3.269c.728 1.096 1.953 1.918 3.223 2.16.652.126 16.257.126 16.91.002 2.518-.482 4.29-2.862 4.026-5.407-.063-.606-.32-1.462-.567-1.893-.084-.145-1.807-2.731-3.83-5.747-2.021-3.016-3.757-5.644-3.856-5.84-.1-.196-.239-.55-.311-.786-.13-.425-.131-.476-.15-4.692l-.02-4.263h.34c.43 0 .716-.138.85-.412a.622.622 0 00-.17-.757C17.616 0 17.56 0 13 0 8.464 0 8.384.002 8.237.118zM15.46 2.52v1.23h-.993c-.646 0-1.047.025-1.147.07-.313.143-.424.662-.201.945.174.222.447.273 1.447.274h.894V7.5h-1c-1.09 0-1.263.04-1.391.32-.18.394-.006.799.387.908.12.033.615.06 1.101.06l.885.001.064.689c.079.842.29 1.59.622 2.212.139.257 1.88 2.894 3.871 5.859 1.99 2.965 3.693 5.522 3.784 5.683.395.705.547 1.82.356 2.608-.322 1.331-1.418 2.442-2.74 2.78-.319.08-1.294.09-8.4.09-8.93 0-8.33.027-9.2-.397-.645-.314-1.31-.991-1.627-1.656-.306-.643-.391-1.015-.39-1.696a3.565 3.565 0 01.434-1.729c.09-.16 1.794-2.718 3.786-5.683 2.046-3.045 3.745-5.633 3.904-5.947a7.25 7.25 0 00.439-1.143l.158-.586.021-4.292.022-4.292h4.914v1.23zm-3.223 13.797c-.363.082-.582.182-1.787.81-.35.183-.65.294-.89.33-.2.03-.411.08-.47.112-.06.032-1.154 1.599-2.433 3.482-2.5 3.682-2.519 3.715-2.384 4.222.102.384.276.616.602.803l.302.173h15.644l.302-.173c.326-.187.5-.42.602-.803.134-.505.115-.539-2.384-4.22-1.565-2.307-2.378-3.454-2.485-3.51a.845.845 0 00-.324-.082c-.306-.001-.631-.128-1.38-.54-.412-.226-.913-.462-1.114-.526-.484-.152-1.31-.188-1.8-.078zm1.836 1.49c.263.131.7.357.97.5.27.145.644.297.831.338l.341.076 2.107 3.105 2.107 3.106-3.715.015c-2.043.008-5.387.008-7.43 0l-3.715-.015 2.104-3.102 2.104-3.101.42-.107c.27-.068.697-.26 1.183-.528.917-.508 1.15-.582 1.755-.55.392.02.528.058.938.263z" fill="#3DB6C1"/></svg>