<svg width="80" height="102" fill="none" xmlns="http://www.w3.org/2000/svg"><path d="M3.553 73.126v12.782h7.229c.478-.034.951.116 1.323.419a1.437 1.437 0 010 2.102c-.38.29-.852.433-1.33.401H2.189a2.269 2.269 0 01-1.67-.52 2.302 2.302 0 01-.509-1.658V73.126a2.325 2.325 0 01.484-1.611 1.635 1.635 0 011.288-.543 1.688 1.688 0 011.3.531 2.32 2.32 0 01.472 1.623zm22.921.886h-8.015v4.316h7.377a1.74 1.74 0 011.217.366 1.217 1.217 0 01.401.962 1.27 1.27 0 01-.396.974 1.69 1.69 0 01-1.222.378h-7.377v4.995h8.269a1.82 1.82 0 011.264.39 1.334 1.334 0 01.425 1.032 1.311 1.311 0 01-.425 1.016 1.82 1.82 0 01-1.264.39h-9.645a2.252 2.252 0 01-1.671-.52 2.278 2.278 0 01-.514-1.66v-13.2a2.95 2.95 0 01.23-1.251 1.42 1.42 0 01.715-.709 2.954 2.954 0 011.24-.218h9.39a1.82 1.82 0 011.265.378 1.258 1.258 0 01.413.986 1.298 1.298 0 01-.413 1.003 1.85 1.85 0 01-1.264.372zm12.29 14.818h-5.368a2.227 2.227 0 01-1.66-.525 2.325 2.325 0 01-.496-1.653v-13.2a2.29 2.29 0 01.514-1.672 2.257 2.257 0 011.642-.507h5.693a13.68 13.68 0 012.18.153 4.692 4.692 0 011.653.59c.418.25.79.567 1.104.94.316.371.562.797.727 1.257.17.465.257.957.254 1.452 0 1.76-.878 3.046-2.634 3.861 2.307.732 3.46 2.16 3.46 4.286a4.822 4.822 0 01-.755 2.65 4.5 4.5 0 01-2.038 1.772c-.59.24-1.21.4-1.843.472a18.31 18.31 0 01-2.433.124zm-3.963-14.889v4.54h3.255a6.392 6.392 0 002.055-.254c.48-.162.879-.505 1.11-.956a2.14 2.14 0 00.301-1.122 1.77 1.77 0 00-.95-1.771 7.233 7.233 0 00-2.883-.437h-2.888zm3.703 7.084h-3.703v5.125h3.821c2.404 0 3.603-.862 3.603-2.598a2.1 2.1 0 00-.933-1.924 5.198 5.198 0 00-2.788-.597v-.006zm21.982-7.013h-8.014v4.316h7.377c.437-.036.871.095 1.216.366a1.24 1.24 0 01.402.962 1.268 1.268 0 01-.396.974 1.691 1.691 0 01-1.222.378h-7.377v4.995h8.268a1.8 1.8 0 011.264.39 1.335 1.335 0 01.425 1.032 1.311 1.311 0 01-.425 1.016 1.808 1.808 0 01-1.264.39h-9.65a2.268 2.268 0 01-1.671-.52 2.302 2.302 0 01-.508-1.66v-13.2a2.952 2.952 0 01.23-1.251 1.42 1.42 0 01.715-.709 2.96 2.96 0 011.234-.218h9.396a1.82 1.82 0 011.264.378 1.28 1.28 0 01.414.986 1.315 1.315 0 01-.414 1.003 1.85 1.85 0 01-1.264.372zm9.426-.909l6.84 10.35V73.008a2.313 2.313 0 01.436-1.53 1.49 1.49 0 011.182-.507 1.53 1.53 0 011.18.508c.327.44.484.982.444 1.529v13.79c0 1.54-.638 2.309-1.914 2.309a2.47 2.47 0 01-.862-.136 2.186 2.186 0 01-.72-.437 4.274 4.274 0 01-.627-.702l-.59-.821-6.674-10.225v10.308a2.184 2.184 0 01-.466 1.517 1.668 1.668 0 01-2.41 0 2.243 2.243 0 01-.455-1.511V73.522a3.787 3.787 0 01.195-1.352 1.9 1.9 0 01.756-.88c.335-.225.73-.344 1.134-.342a1.92 1.92 0 01.82.16c.223.1.424.242.591.419.197.208.373.436.526.679l.614.897zM8.921 99.893h-.968l-3.756-5.638v5.638h-.898v-7.149h.98l3.739 5.65v-5.65h.903v7.15zm5.853-.525a2.606 2.606 0 01-1.772.656c-.235 0-.468-.038-.69-.112a1.772 1.772 0 01-.591-.302 1.377 1.377 0 01-.508-1.062c0-1.213 1.041-1.817 3.124-1.813h.437v-.59a.98.98 0 00-.142-.437.69.69 0 00-.372-.266 2.063 2.063 0 00-.714-.094c-.815 0-1.235.295-1.264.886h-.928c.064-1.075.812-1.612 2.245-1.612.296-.004.59.026.88.088.242.049.468.154.661.307.19.157.337.36.425.59.104.31.152.636.142.963v3.342h-.933v-.544zm0-.832V97.39h-.59c-1.335 0-2.003.36-2.003 1.086a.69.69 0 00.296.59c.235.152.511.227.791.213a2.14 2.14 0 00.88-.2 1.95 1.95 0 00.378-.243 1.67 1.67 0 00.248-.301zM20.19 99.9a1.81 1.81 0 01-.319.059h-.343a1.703 1.703 0 01-.655-.1.744.744 0 01-.366-.302 1.18 1.18 0 01-.166-.496 5.968 5.968 0 01-.035-.69v-2.952h-.644v-.715h.656v-1.286h.921v1.286h.85v.715h-.862v2.987a2.08 2.08 0 00.036.431.53.53 0 00.1.254.313.313 0 00.136.106c.07.01.142.01.213 0h.46l.018.703zm5.162-.662a2.03 2.03 0 01-1.554.786c-1.18 0-1.771-.638-1.771-1.913v-3.389h.927v3.336c-.005.186.015.373.059.555a.91.91 0 00.165.366c.08.095.184.166.302.206.14.05.288.071.437.065a1.808 1.808 0 001.417-.826v-3.702h.915v5.172h-.897v-.656zm6.071-3.672a1.69 1.69 0 00-.555-.07 1.182 1.182 0 00-.656.188 2.049 2.049 0 00-.59.55v3.66h-.886v-5.172h.915v.714a1.665 1.665 0 011.359-.844c.139.003.277.019.413.047v.927zm13.087 4.222l-.59.667-1.181-.933a3.387 3.387 0 01-1.801.49 3.54 3.54 0 01-1.382-.272 3.188 3.188 0 01-1.087-.755 3.541 3.541 0 01-.709-1.181 4.385 4.385 0 01-.248-1.511 4.284 4.284 0 01.254-1.518c.159-.436.401-.837.715-1.18.313-.31.687-.55 1.098-.709a3.68 3.68 0 012.746 0c.41.172.777.427 1.081.75.316.34.557.742.709 1.18.177.485.266.997.26 1.512.006.5-.072.996-.23 1.47a3.55 3.55 0 01-.697 1.18l1.063.81zm-1.771-1.382a3.116 3.116 0 00.661-2.102 3.683 3.683 0 00-.183-1.216 2.657 2.657 0 00-.508-.909 2.243 2.243 0 00-.767-.59 2.588 2.588 0 00-1.955 0 2.209 2.209 0 00-.774.59 2.698 2.698 0 00-.514.903 4.13 4.13 0 000 2.427c.106.333.276.642.502.909.211.252.475.453.774.59.309.136.643.205.98.201.185 0 .37-.022.55-.065a2.87 2.87 0 00.525-.177l-.715-.59.591-.667.833.696zm7.187.832a2.03 2.03 0 01-1.553.786c-1.181 0-1.772-.638-1.772-1.913v-3.389h.934v3.336c-.004.186.014.372.053.555a.923.923 0 00.17.366.645.645 0 00.302.206c.139.049.285.07.431.065a1.806 1.806 0 001.424-.826v-3.702h.915v5.172h-.904v-.656zm6.668.13a2.62 2.62 0 01-1.819.656 2.26 2.26 0 01-.697-.113 1.735 1.735 0 01-.555-.3 1.376 1.376 0 01-.508-1.063c0-1.213 1.042-1.817 3.124-1.813h.455v-.59a.98.98 0 00-.141-.437.691.691 0 00-.373-.266 2.087 2.087 0 00-.714-.094c-.815 0-1.24.295-1.27.886h-.933c.067-1.075.815-1.612 2.244-1.612a4 4 0 01.88.088c.241.05.468.155.662.307.19.156.335.36.419.59.108.31.158.636.148.963v3.341h-.922v-.543zm0-.832V97.39h-.638c-1.334 0-2.008.36-2.008 1.086a.696.696 0 00.302.59c.235.152.511.227.791.213.151 0 .302-.018.449-.053a2.06 2.06 0 00.431-.148 1.956 1.956 0 00.673-.543zm4.301 1.357h-.917v-7.149h.917v7.15zm3.389-6.151h-.916v-.998h.916v.998zm0 6.151h-.916v-5.171h.916v5.171zm4.476.007a1.831 1.831 0 01-.312.059h-.349a1.65 1.65 0 01-.65-.1.756.756 0 01-.372-.302 1.257 1.257 0 01-.165-.496 5.968 5.968 0 01-.035-.69v-2.952h-.638v-.715h.638v-1.286h.921v1.286h.844v.715h-.844v2.987c-.003.144.008.289.035.431a.592.592 0 00.1.254.313.313 0 00.154.112c.07.01.142.01.213 0h.437l.024.697zm2.168 1.245c.455 0 .827-.413 1.116-1.251l-1.949-5.172h.999l1.364 4.044 1.376-4.044h.992l-1.955 5.172c-.112.313-.224.59-.337.856-.099.231-.22.452-.36.661-.123.173-.28.32-.46.431-.18.102-.384.155-.591.153-.11.007-.22.007-.33 0a1.748 1.748 0 01-.278-.053v-.856c.07.031.143.051.218.059.065.005.13.005.195 0z" fill="#231F20"/><path d="M21.27 68.156c-.074.006-.15.006-.224 0a2.245 2.245 0 01-2.02-2.45 62.633 62.633 0 018.115-23.355c6.444-10.945 19.266-24.523 43.74-27.05a2.251 2.251 0 012.492 2.893 2.249 2.249 0 01-2.032 1.576c-18.084 1.871-31.626 10.184-40.237 24.713a59.187 59.187 0 00-7.63 21.654 2.243 2.243 0 01-2.203 2.019z" fill="#3DB6C1"/><path d="M21.27 68.658a2.217 2.217 0 01-.277 0 2.753 2.753 0 01-2.463-3.005 63.303 63.303 0 018.21-23.544c6.496-11.046 19.43-24.748 44.135-27.298a2.754 2.754 0 012.44 4.462 2.753 2.753 0 01-1.85 1.01c-17.99 1.842-31.402 10.072-39.93 24.453a58.742 58.742 0 00-7.56 21.448 2.74 2.74 0 01-2.704 2.474zM71.165 15.79h-.183c-24.315 2.527-37.024 15.97-43.403 26.814a62.309 62.309 0 00-8.08 23.136 1.771 1.771 0 002.248 1.85 1.714 1.714 0 001.226-1.507 59.393 59.393 0 017.677-21.844c8.718-14.706 22.39-23.083 40.663-24.966a1.772 1.772 0 00-.177-3.483h.03z" fill="#3DB6C1"/><path d="M5.608 68.156c-.075.006-.15.006-.224 0a2.239 2.239 0 01-2.014-2.45c.059-.59 1.547-14.918 10.536-30.191C22.233 21.358 38.81 3.807 70.503.53a2.251 2.251 0 011.976 3.657 2.249 2.249 0 01-1.516.818C47.087 7.467 29.22 18.448 17.87 37.635A78.054 78.054 0 007.829 66.13a2.243 2.243 0 01-2.22 2.025z" fill="#3DB6C1"/><path d="M5.608 68.657c-.09.006-.181.006-.272 0a2.752 2.752 0 01-2.468-3.004c.059-.59 1.559-15.02 10.63-30.392C21.861 21.003 38.552 3.322 70.45.016a2.753 2.753 0 012.415 4.47 2.723 2.723 0 01-1.854.997C47.304 7.95 29.569 18.849 18.318 37.893a77.317 77.317 0 00-9.958 28.29 2.739 2.739 0 01-2.752 2.474zM70.733 1.02h-.183C39.071 4.273 22.605 21.683 14.337 35.745 5.401 50.94 3.925 65.145 3.866 65.74a1.77 1.77 0 003.478.343A78.185 78.185 0 0117.432 37.38C28.878 18.046 46.867 6.982 70.91 4.503a1.772 1.772 0 001.56-1.913 1.771 1.771 0 00-1.737-1.57z" fill="#3DB6C1"/><path d="M56.996 68.162a2.257 2.257 0 01-2.238-2.025 59.104 59.104 0 00-7.625-21.655c-8.617-14.529-22.16-22.84-40.261-24.712a2.25 2.25 0 01.46-4.47c24.499 2.527 37.32 16.106 43.758 27.051a62.633 62.633 0 018.144 23.343 2.243 2.243 0 01-2.02 2.456l-.218.012z" fill="#3DB6C1"/><path d="M56.996 68.663a2.735 2.735 0 01-2.735-2.48 58.975 58.975 0 00-7.565-21.447c-8.522-14.381-21.94-22.61-39.877-24.464a2.754 2.754 0 01-1.432-4.88 2.755 2.755 0 012.022-.593c24.705 2.55 37.64 16.253 44.142 27.298a63.222 63.222 0 018.209 23.544 2.756 2.756 0 01-.59 2.019 2.717 2.717 0 01-1.873.986l-.301.017zm-49.9-52.872a1.772 1.772 0 00-.17 3.483c18.266 1.883 31.939 10.26 40.638 24.954a60 60 0 017.678 21.844 1.77 1.77 0 003.23 1.135 1.77 1.77 0 00.243-1.478 61.973 61.973 0 00-8.056-23.124C44.304 31.76 31.57 18.317 7.285 15.803l-.189-.012z" fill="#3DB6C1"/><path d="M72.653 68.161a2.25 2.25 0 01-2.239-2.03 78.019 78.019 0 00-10.04-28.497C49.03 18.447 31.145 7.466 7.274 5.004a2.25 2.25 0 01-1.19-3.982A2.25 2.25 0 017.734.53c31.692 3.276 48.27 20.828 56.597 34.973 8.989 15.272 10.477 29.589 10.536 30.19a2.254 2.254 0 01-2.02 2.457l-.194.011z" fill="#3DB6C1"/><path d="M72.653 68.664a2.747 2.747 0 01-2.74-2.486 77.955 77.955 0 00-9.952-28.284C48.663 18.849 30.927 7.95 7.22 5.5a2.735 2.735 0 01-1.855-.998A2.75 2.75 0 017.787.016c31.892 3.289 48.589 20.97 56.975 35.215 9.048 15.35 10.548 29.79 10.631 30.392a2.75 2.75 0 01-2.475 3.005c-.087.018-.176.03-.265.036zM7.498 1.02a1.772 1.772 0 00-1.353 2.845 1.725 1.725 0 001.182.638C31.37 6.99 49.365 18.046 60.805 37.38a79.276 79.276 0 0110.076 28.698 1.77 1.77 0 002.667 1.665 1.77 1.77 0 00.805-2.002c-.059-.59-1.535-14.8-10.47-29.984C55.625 21.712 39.16 4.285 7.686 1.032l-.19-.012z" fill="#3DB6C1"/><path d="M39.544 62.276C37.08 56.319 24.619 34.529 6.937 34.918a2.204 2.204 0 01-2.194-3.02 2.2 2.2 0 012.1-1.378c15.981-.366 27.651 13.242 32.276 19.848 12.863-21.843 30.994-19.7 31.762-19.653a2.203 2.203 0 011.214 3.884 2.204 2.204 0 01-1.61.502c-.744-.059-22.076 2.06-31.178 27.157.018.035.272.018.237.018z" fill="#3DB6C1"/></svg>