<svg width="130" height="45" fill="none" xmlns="http://www.w3.org/2000/svg"><path d="M53.083 15.415v12.99h7.299c.483-.034.96.118 1.336.426a1.46 1.46 0 01.342 1.65c-.08.184-.196.35-.342.486-.384.295-.86.44-1.342.408h-8.67a2.275 2.275 0 01-1.688-.528 2.35 2.35 0 01-.513-1.686V15.415a2.374 2.374 0 01.489-1.638 1.652 1.652 0 011.3-.552 1.696 1.696 0 011.312.54c.36.47.53 1.059.477 1.65zm23.143.9h-8.092V20.7h7.448c.442-.037.88.096 1.229.372a1.235 1.235 0 01.405.978 1.296 1.296 0 01-.4.99 1.705 1.705 0 01-1.234.384h-7.448V28.5h8.349c.46-.034.915.107 1.276.396a1.356 1.356 0 01.43 1.05 1.34 1.34 0 01-.43 1.032 1.83 1.83 0 01-1.276.396h-9.738a2.26 2.26 0 01-1.688-.528 2.326 2.326 0 01-.519-1.686V15.745c-.015-.436.064-.87.233-1.272.145-.321.401-.577.721-.72.397-.164.824-.24 1.253-.222h9.481c.458-.037.914.1 1.276.384a1.278 1.278 0 01.418 1.002 1.327 1.327 0 01-.418 1.02c-.364.28-.819.414-1.276.378zm12.41 15.06h-5.42a2.234 2.234 0 01-1.676-.534 2.374 2.374 0 01-.501-1.68V15.745a2.338 2.338 0 01.519-1.698 2.269 2.269 0 011.657-.516h5.749c.736-.007 1.472.045 2.2.156.59.092 1.156.296 1.67.6a4.43 4.43 0 011.115.954c.319.378.567.811.734 1.278.172.472.26.972.256 1.476 0 1.788-.886 3.096-2.66 3.924 2.33.744 3.495 2.196 3.495 4.356a4.925 4.925 0 01-.763 2.694 4.553 4.553 0 01-2.058 1.8 7.028 7.028 0 01-1.86.48c-.815.097-1.636.139-2.457.126zm-4.001-15.132v4.614h3.285a6.414 6.414 0 002.076-.258 1.965 1.965 0 001.12-.972c.204-.345.31-.74.305-1.14a1.81 1.81 0 00-.96-1.8 7.26 7.26 0 00-2.91-.444h-2.916zm3.739 7.2h-3.74v5.208h3.859c2.427 0 3.638-.876 3.638-2.64a2.148 2.148 0 00-.943-1.956 5.221 5.221 0 00-2.814-.606v-.006zm22.195-7.128h-8.092V20.7h7.448c.441-.037.88.096 1.228.372a1.261 1.261 0 01.406.978 1.304 1.304 0 01-.4.99 1.705 1.705 0 01-1.234.384h-7.448V28.5h8.348c.46-.035.916.106 1.276.396a1.366 1.366 0 01.43 1.05 1.343 1.343 0 01-.43 1.032c-.36.29-.816.43-1.276.396h-9.744a2.275 2.275 0 01-1.687-.528 2.35 2.35 0 01-.513-1.686V15.745c-.016-.436.064-.87.232-1.272.145-.321.402-.577.722-.72.395-.163.82-.239 1.246-.222h9.488c.458-.037.913.1 1.276.384a1.304 1.304 0 01.417 1.002 1.336 1.336 0 01-.417 1.02c-.365.28-.819.414-1.276.378zm9.518-.925l6.905 10.519V15.295a2.367 2.367 0 01.441-1.554 1.504 1.504 0 011.193-.516 1.538 1.538 0 011.193.516c.329.447.488.999.447 1.554V29.31c0 1.564-.644 2.346-1.932 2.346a2.481 2.481 0 01-.871-.138 2.21 2.21 0 01-.727-.444 4.345 4.345 0 01-.632-.714l-.597-.834-6.738-10.392V29.61a2.236 2.236 0 01-.471 1.542 1.683 1.683 0 01-1.217.524 1.672 1.672 0 01-1.216-.524 2.295 2.295 0 01-.46-1.536v-13.8a3.883 3.883 0 01.197-1.374c.156-.37.423-.683.764-.894.338-.229.737-.35 1.145-.348a1.92 1.92 0 01.828.162c.225.101.427.246.597.426.199.212.376.443.53.69l.621.912zM55.173 42.619h-.978l-3.793-5.73v5.73h-.906v-7.266h.99l3.774 5.742v-5.742h.913v7.266zm5.909-.534a2.62 2.62 0 01-1.789.666 2.17 2.17 0 01-.697-.114 1.787 1.787 0 01-.597-.306 1.399 1.399 0 01-.513-1.08c0-1.232 1.052-1.846 3.155-1.842h.441v-.6a1 1 0 00-.143-.444.698.698 0 00-.376-.27 2.069 2.069 0 00-.721-.096c-.823 0-1.246.3-1.276.9h-.937c.064-1.092.82-1.638 2.267-1.638.298-.004.596.026.888.09.244.05.473.156.668.312.192.16.34.366.43.6.104.315.152.646.142.978v3.396h-.942v-.552zm0-.846v-1.164h-.596c-1.348 0-2.022.366-2.022 1.104a.704.704 0 00.298.6c.238.154.517.23.8.216a2.147 2.147 0 00.889-.204c.135-.067.263-.15.38-.246a1.67 1.67 0 00.251-.306zm5.468 1.386c-.105.03-.212.05-.321.06h-.346c-.225.01-.45-.025-.662-.102a.752.752 0 01-.37-.306 1.205 1.205 0 01-.167-.504 6.097 6.097 0 01-.035-.702v-3h-.65v-.726h.661v-1.308h.93v1.308h.86v.726h-.871v3.036a2.01 2.01 0 00.036.438.54.54 0 00.1.258.316.316 0 00.138.108c.071.01.144.01.215 0h.465l.018.714zm5.213-.672a2.054 2.054 0 01-1.569.798c-1.193 0-1.789-.648-1.789-1.944v-3.444h.936v3.39c-.004.19.016.38.06.564a.927.927 0 00.167.372.68.68 0 00.304.21c.142.05.291.072.441.066a1.816 1.816 0 001.432-.84v-3.762h.924v5.256h-.906v-.666zm6.13-3.733a1.696 1.696 0 00-.56-.071 1.187 1.187 0 00-.662.192 2.074 2.074 0 00-.597.558v3.72h-.894v-5.256h.924v.726a1.688 1.688 0 011.371-.858c.14.003.28.019.418.048v.942zm13.215 4.29l-.597.679-1.192-.948a3.389 3.389 0 01-.86.372 3.555 3.555 0 01-.96.126 3.559 3.559 0 01-1.395-.276 3.22 3.22 0 01-1.097-.768 3.604 3.604 0 01-.716-1.2 4.484 4.484 0 01-.25-1.536 4.38 4.38 0 01.256-1.542c.16-.444.406-.852.722-1.2a3.244 3.244 0 011.11-.72 3.692 3.692 0 012.772 0c.413.174.785.434 1.091.762.32.345.563.754.716 1.2.18.492.268 1.012.262 1.536a4.56 4.56 0 01-.232 1.494c-.155.442-.394.85-.704 1.2l1.073.822zm-1.79-1.403a3.181 3.181 0 00.668-2.136 3.767 3.767 0 00-.184-1.236 2.706 2.706 0 00-.513-.924 2.269 2.269 0 00-.776-.6 2.598 2.598 0 00-1.973 0 2.23 2.23 0 00-.782.6c-.23.27-.406.58-.518.918a4.224 4.224 0 000 2.466c.106.338.279.653.507.924.212.256.48.46.78.6.312.138.65.208.99.204.187 0 .373-.023.555-.066a2.91 2.91 0 00.53-.18l-.72-.6.596-.678.84.708zm7.258.846a2.054 2.054 0 01-1.568.798c-1.193 0-1.79-.648-1.79-1.944v-3.444h.943v3.39c-.003.19.015.378.054.564a.938.938 0 00.172.372.65.65 0 00.305.21c.14.049.287.071.435.066a1.817 1.817 0 001.437-.84v-3.762h.924v5.256h-.912v-.666zm6.733.132a2.635 2.635 0 01-1.837.666 2.25 2.25 0 01-.704-.114 1.738 1.738 0 01-.56-.306 1.398 1.398 0 01-.513-1.08c0-1.232 1.051-1.846 3.154-1.842h.46v-.6a1.013 1.013 0 00-.144-.444.696.696 0 00-.375-.27 2.096 2.096 0 00-.722-.096c-.823 0-1.252.3-1.282.9h-.942c.067-1.092.823-1.638 2.266-1.638a4.02 4.02 0 01.888.09 1.6 1.6 0 01.668.312c.192.158.339.365.424.6.109.314.16.645.149.978v3.396h-.93v-.552zm0-.846v-1.164h-.645c-1.347 0-2.027.366-2.027 1.104a.706.706 0 00.304.6c.237.154.517.23.799.216a1.9 1.9 0 00.453-.054 2.08 2.08 0 00.436-.15 1.96 1.96 0 00.68-.552zm4.341 1.38h-.924v-7.266h.924v7.266zm3.423-6.252h-.925v-1.014h.925v1.014zm0 6.252h-.925v-5.256h.925v5.256zm4.52.006c-.104.029-.21.05-.316.06h-.352a1.653 1.653 0 01-.656-.102.764.764 0 01-.376-.306 1.286 1.286 0 01-.167-.504 6.33 6.33 0 01-.036-.702v-3h-.644v-.726h.644v-1.308h.931v1.308h.852v.726h-.852v3.036c-.004.147.008.294.035.438a.604.604 0 00.102.258.314.314 0 00.155.114c.071.01.143.01.215 0h.441l.024.708zm2.188 1.265c.459 0 .835-.42 1.127-1.271l-1.968-5.256h1.008l1.378 4.11 1.389-4.11h1.002l-1.974 5.256c-.113.318-.226.6-.34.87-.1.235-.222.46-.364.672a1.596 1.596 0 01-.465.438 1.185 1.185 0 01-.596.156 3.001 3.001 0 01-.334 0 1.786 1.786 0 01-.28-.054v-.87c.07.03.144.051.22.06.066.004.132.004.197 0z" fill="#231F20"/><path d="M11.431 42.584a.875.875 0 01-.139 0 1.387 1.387 0 01-.942-.504 1.403 1.403 0 01-.312-1.027 39.303 39.303 0 015.037-14.592c4-6.839 11.959-15.322 27.151-16.901a1.388 1.388 0 011.434.705 1.412 1.412 0 01-.604 1.945c-.17.084-.355.132-.544.142-11.225 1.17-19.632 6.363-24.977 15.44a37.14 37.14 0 00-4.736 13.53c-.034.343-.193.66-.445.893-.252.233-.58.364-.923.369z" fill="#3DB6C1"/><path d="M11.431 42.897a1.339 1.339 0 01-.172 0 1.705 1.705 0 01-1.15-.62 1.726 1.726 0 01-.379-1.257 39.724 39.724 0 015.096-14.71c4.033-6.901 12.061-15.463 27.396-17.056.45-.05.902.084 1.255.37a1.727 1.727 0 01.26 2.418 1.706 1.706 0 01-1.148.631c-11.167 1.151-19.492 6.293-24.786 15.278a36.86 36.86 0 00-4.693 13.4c-.04.422-.234.812-.544 1.098-.31.285-.715.445-1.135.448zm30.97-33.03h-.113c-15.093 1.578-22.982 9.977-26.941 16.753a39.098 39.098 0 00-5.015 14.455 1.11 1.11 0 00.245.794 1.098 1.098 0 001.15.362 1.059 1.059 0 00.643-.531c.066-.128.106-.267.117-.41a37.27 37.27 0 014.766-13.649c5.411-9.188 13.898-14.422 25.24-15.599a1.1 1.1 0 00.631-.411 1.111 1.111 0 00-.072-1.42 1.097 1.097 0 00-.669-.345h.019z" fill="#3DB6C1"/><path d="M1.71 42.584a.876.876 0 01-.14 0 1.384 1.384 0 01-.941-.504 1.4 1.4 0 01-.31-1.027c.038-.369.961-9.32 6.541-18.863C12.03 13.344 22.32 2.378 41.992.33a1.389 1.389 0 011.372.73 1.412 1.412 0 01-.566 1.905 1.39 1.39 0 01-.52.161c-14.822 1.539-25.912 8.4-32.958 20.388a48.978 48.978 0 00-6.232 17.805 1.405 1.405 0 01-.448.899 1.389 1.389 0 01-.93.366z" fill="#3DB6C1"/><path d="M1.71 42.898a1.282 1.282 0 01-.17 0 1.705 1.705 0 01-1.152-.62 1.726 1.726 0 01-.38-1.258c.037-.369.968-9.384 6.599-18.989C11.798 13.123 22.158 2.076 41.958.011a1.7 1.7 0 011.675.892 1.727 1.727 0 01-.688 2.328 1.683 1.683 0 01-.638.195c-14.716 1.542-25.725 8.35-32.709 20.25a48.515 48.515 0 00-6.18 17.676c-.042.426-.24.82-.556 1.107a1.695 1.695 0 01-1.153.438zM42.133.638h-.113C22.48 2.67 12.26 13.547 7.127 22.333 1.581 31.828.664 40.703.627 41.075c.018.262.127.508.308.697a1.097 1.097 0 001.852-.483 49.06 49.06 0 016.261-17.934C16.153 11.275 27.32 4.363 42.244 2.814a1.1 1.1 0 00.725-.4c.18-.224.268-.509.243-.795a1.109 1.109 0 00-.355-.696 1.096 1.096 0 00-.723-.286z" fill="#3DB6C1"/><path d="M33.607 42.588a1.394 1.394 0 01-.936-.365 1.412 1.412 0 01-.453-.9 37.088 37.088 0 00-4.733-13.53c-5.349-9.078-13.755-14.271-24.992-15.44a1.395 1.395 0 01-.892-.531A1.412 1.412 0 011.8 9.896a1.39 1.39 0 01.98-.336c15.207 1.579 23.166 10.062 27.162 16.901a39.302 39.302 0 015.055 14.585 1.41 1.41 0 01-.731 1.376c-.162.087-.34.14-.522.158l-.136.008z" fill="#3DB6C1"/><path d="M33.607 42.901a1.692 1.692 0 01-1.147-.443 1.711 1.711 0 01-.55-1.106 37.005 37.005 0 00-4.696-13.4c-5.29-8.986-13.62-14.128-24.753-15.286a1.706 1.706 0 01-1.148-.631 1.727 1.727 0 01.26-2.418c.352-.286.804-.42 1.254-.37 15.335 1.593 23.364 10.154 27.4 17.056a39.675 39.675 0 015.096 14.71 1.73 1.73 0 01-.367 1.261 1.688 1.688 0 01-1.162.616l-.187.011zM2.633 9.866a1.098 1.098 0 00-.668.346 1.11 1.11 0 00.562 1.83c11.339 1.177 19.826 6.411 25.226 15.592a37.649 37.649 0 014.766 13.648 1.114 1.114 0 00.327.875 1.099 1.099 0 001.33.162 1.104 1.104 0 00.498-1.251 38.888 38.888 0 00-5-14.448C25.729 19.844 17.825 11.445 2.75 9.874l-.117-.008z" fill="#3DB6C1"/><path d="M43.326 42.588a1.39 1.39 0 01-.938-.365 1.409 1.409 0 01-.452-.904 48.956 48.956 0 00-6.232-17.805C28.662 11.526 17.561 4.665 2.743 3.127a1.39 1.39 0 01-.94-.511A1.411 1.411 0 012.004.639 1.39 1.39 0 013.029.33C22.7 2.378 32.99 13.345 38.16 22.182c5.58 9.543 6.504 18.488 6.54 18.864.035.37-.077.74-.312 1.027-.235.288-.573.47-.941.507l-.121.008z" fill="#3DB6C1"/><path d="M43.326 42.901a1.699 1.699 0 01-1.15-.445 1.719 1.719 0 01-.551-1.108 48.915 48.915 0 00-6.178-17.672C28.434 11.776 17.425 4.968 2.71 3.436a1.69 1.69 0 01-1.151-.622A1.724 1.724 0 012.082.197a1.7 1.7 0 01.98-.187c19.796 2.055 30.16 13.102 35.366 22.003 5.616 9.59 6.547 18.612 6.599 18.988a1.73 1.73 0 01-.382 1.26 1.71 1.71 0 01-1.154.618c-.055.011-.11.018-.165.022zM2.882.637a1.095 1.095 0 00-.959.631 1.113 1.113 0 00.12 1.147 1.072 1.072 0 00.733.399C17.7 4.366 28.87 11.275 35.972 23.355a49.745 49.745 0 016.254 17.93 1.114 1.114 0 00.325.877 1.1 1.1 0 001.33.164 1.103 1.103 0 00.526-.772c.027-.16.018-.323-.025-.479-.037-.369-.954-9.247-6.5-18.734C32.757 13.566 22.536 2.677 2.999.645L2.882.637z" fill="#3DB6C1"/><path d="M22.774 38.91c-1.529-3.722-9.264-17.336-20.24-17.093a1.36 1.36 0 01-1.339-.804 1.383 1.383 0 01.74-1.847c.171-.069.355-.102.54-.097 9.92-.229 17.165 8.274 20.035 12.401 7.985-13.648 19.24-12.309 19.716-12.28.361.034.695.21.927.49a1.382 1.382 0 01-.174 1.938 1.362 1.362 0 01-.999.314c-.461-.037-13.703 1.287-19.352 16.967.01.022.168.011.146.011z" fill="#3DB6C1"/></svg>